# xmcd
#
# Track frame offsets:
#	150
#	25526
#	81613
#	100908
#
# Disc length: 2502 seconds
#
# Revision: 2097186
# Processed by: cddbd v1.5.2PL0 Copyright (c) Steve Scherf et al.
# Submitted via: EZCDAudioConverter 8.0.2.1
#
DISCID=2709c404
DTITLE=Hài Vân Sơn - Nụ Cười Dân Gian 1
DYEAR=2002
DGENRE=Miscellaneous
TTITLE0=Hoài Linh - Trách thân
TTITLE1=Vân Sơn, Hoài Linh - Song tấu chơi chữ
TTITLE2=Vân Sơn - Hoàng Phi Hùng
TTITLE3=Vân Sơn, Hoài Linh, Hồng Đào - Ông Ninh ông Nang
EXTD=
EXTT0=
EXTT1=
EXTT2=
EXTT3=
PLAYORDER=
